<svg width="160" height="160" viewBox="0 0 160 160" fill="none" xmlns="http://www.w3.org/2000/svg">
<circle cx="79.9998" cy="79.9998" r="67.5652" fill="#F8F8F8" stroke="#C23B00" stroke-width="4"/>
<path fill-rule="evenodd" clip-rule="evenodd" d="M10.5059 76.8328C30.954 65.0203 54.6876 58.2607 80 58.2607C105.313 58.2607 129.046 65.0204 149.495 76.8331C147.839 39.8831 117.359 10.4346 80.0003 10.4346C42.6418 10.4346 12.1614 39.8829 10.5059 76.8328Z" fill="#D1D1D1"/>
<path d="M151.91 80C156.378 80 160.042 76.3686 159.592 71.9235C157.74 53.6729 149.656 36.5185 136.569 23.4315C121.566 8.42855 101.217 1.60186e-06 80 0C58.7827 -1.60186e-06 38.4344 8.42854 23.4315 23.4315C10.3444 36.5185 2.25985 53.6729 0.408475 71.9235C-0.042445 76.3686 3.62197 80 8.08989 80C12.5578 80 16.1269 76.3635 16.6916 71.9314C18.4693 57.981 24.8215 44.9231 34.8723 34.8723C46.8409 22.9037 63.0738 16.1798 80 16.1798C96.9262 16.1798 113.159 22.9037 125.128 34.8723C135.178 44.9231 141.531 57.981 143.308 71.9314C143.873 76.3635 147.442 80 151.91 80Z" fill="#CC4400"/>
</svg>
