<svg width="201" height="218" viewBox="0 0 201 218" fill="none" xmlns="http://www.w3.org/2000/svg">
<path fill-rule="evenodd" clip-rule="evenodd" d="M157.53 112.384H145.043V116.226H157.53V112.384ZM157.53 119.108H145.043V122.95H157.53V119.108ZM145.043 129.674V125.831H157.53V129.674H145.043ZM145.043 132.555V136.398H157.53V132.555H145.043ZM145.043 143.121V139.279H157.53V143.121H145.043ZM145.043 146.003V149.845H157.53V146.003H145.043Z" fill="#D9D9D9"/>
<path fill-rule="evenodd" clip-rule="evenodd" d="M82.6072 112.384H70.1201V116.226H82.6072V112.384ZM82.6072 119.108H70.1201V122.95H82.6072V119.108ZM70.1201 129.674V125.832H82.6072V129.674H70.1201ZM70.1201 132.555V136.398H82.6072V132.555H70.1201ZM70.1201 143.121V139.279H82.6072V143.121H70.1201ZM70.1201 146.003V149.845H82.6072V146.003H70.1201Z" fill="#D9D9D9"/>
<path fill-rule="evenodd" clip-rule="evenodd" d="M133.517 99.8968V87.4097H129.674V99.8968H133.517ZM126.793 99.8968V87.4097H122.95V99.8968H126.793ZM116.226 87.4097H120.069V99.8968H116.226V87.4097ZM113.345 87.4097H109.503V99.8968H113.345V87.4097ZM102.779 87.4097H106.622V99.8968H102.779V87.4097ZM99.8978 87.4097H96.0553V99.8968H99.8978V87.4097Z" fill="#D9D9D9"/>
<path fill-rule="evenodd" clip-rule="evenodd" d="M133.517 174.82V162.333H129.674V174.82H133.517ZM126.793 174.82V162.333H122.95V174.82H126.793ZM116.226 162.333H120.069V174.82H116.226V162.333ZM113.345 162.333H109.503V174.82H113.345V162.333ZM102.779 162.333H106.622V174.82H102.779V162.333ZM99.8978 162.333H96.0553V174.82H99.8978V162.333Z" fill="#D9D9D9"/>
<path fill-rule="evenodd" clip-rule="evenodd" d="M71.7633 29.764C61.9428 24.469 50.5444 21.439 38.3878 21.439C26.2306 21.439 14.8317 24.4693 5.01074 29.7648C5.80562 13.2011 20.4446 0 38.3871 0C56.3292 0 70.968 13.2006 71.7633 29.764Z" fill="#C23B00"/>
<path d="M38.4219 6.59424C47.257 6.59424 55.1788 9.28281 60.8467 13.5337C66.5138 17.7841 69.832 23.5031 69.832 29.6519C69.832 35.8006 66.5138 41.5196 60.8467 45.77C55.1788 50.0209 47.257 52.7095 38.4219 52.7095C29.5868 52.7094 21.6649 50.0209 15.9971 45.77C10.3301 41.5196 7.01172 35.8006 7.01172 29.6519C7.01176 23.5032 10.3301 17.7841 15.9971 13.5337C21.6649 9.28283 29.5868 6.59427 38.4219 6.59424Z" fill="#F8F8F8" stroke="#C23B00" stroke-width="4"/>
<path fill-rule="evenodd" clip-rule="evenodd" d="M71.7633 34.3573C61.9428 29.0623 50.5444 26.0323 38.3878 26.0323C26.2306 26.0323 14.8316 29.0626 5.01074 34.3581C5.80588 17.7946 20.4448 4.59375 38.387 4.59375C56.329 4.59375 70.9677 17.7941 71.7633 34.3573Z" fill="#D1D1D1"/>
<path d="M31.6982 34.5796V39.5911" stroke="black" stroke-width="6" stroke-linecap="round"/>
<path d="M45.1455 34.5796V39.5911" stroke="black" stroke-width="6" stroke-linecap="round"/>
<path d="M31.7402 53.874H45.1044L41.7633 120.695H35.0813L31.7402 53.874Z" fill="#C23B00"/>
<path d="M72.8865 37.4332C74.8677 37.6644 76.7368 36.3414 76.8233 34.3487C76.9527 31.3698 76.4654 28.3866 75.3702 25.5069C73.846 21.4988 71.1806 17.7863 67.5579 14.6257C63.9352 11.4651 59.4415 8.93146 54.3867 7.19963C49.3319 5.46779 43.8363 4.57895 38.2791 4.59444C32.7219 4.60992 27.2353 5.52936 22.1978 7.28932C17.1603 9.04928 12.6918 11.6079 9.10051 14.7886C5.50924 17.9693 2.8807 21.6965 1.39621 25.713C0.327291 28.6051 -0.130144 31.5976 0.0317583 34.5821C0.139381 36.566 2.01025 37.8685 3.98236 37.627C6.23037 37.3518 7.71356 35.1868 7.77761 32.9229C7.83154 31.0168 8.20159 29.1176 8.88454 27.2698C10.0688 24.0656 12.1657 21.0923 15.0307 18.5549C17.8956 16.0174 21.4604 13.9763 25.4791 12.5723C29.4977 11.1683 33.8747 10.4348 38.308 10.4224C42.7413 10.4101 47.1254 11.1191 51.1578 12.5007C55.1903 13.8823 58.7752 15.9035 61.6652 18.4249C64.5552 20.9463 66.6815 23.9079 67.8975 27.1054C68.6002 28.9532 68.9892 30.8543 69.0609 32.7642C69.1456 35.0231 70.6413 37.1711 72.8865 37.4332Z" fill="#C23B00"/>
<path d="M72.9584 37.5864C75.1042 37.5864 76.8778 35.8334 76.4967 33.7217C75.3753 27.5061 71.5701 21.6951 65.5902 17.2101C58.3847 11.806 48.612 8.77002 38.4219 8.77002C28.2318 8.77002 18.459 11.806 11.2535 17.2101C5.27361 21.6951 1.46842 27.5061 0.346963 33.7217C-0.0340522 35.8334 1.73953 37.5864 3.88536 37.5864C6.03118 37.5864 7.7298 35.826 8.2042 33.7333C9.2622 29.0661 12.2256 24.7232 16.7482 21.3312C22.4964 17.02 30.2927 14.5981 38.4219 14.5981C46.551 14.5981 54.3473 17.02 60.0955 21.3312C64.6182 24.7232 67.5815 29.0661 68.6395 33.7333C69.1139 35.826 70.8125 37.5864 72.9584 37.5864Z" fill="#C23B00"/>
<path d="M103.394 46.2251C103.341 102.934 88.2029 120.393 28.8164 120.802" stroke="#FFC7AC" stroke-width="8"/>
<path d="M125.423 46.1064C125.476 102.815 140.614 120.274 200 120.684" stroke="#FFC7AC" stroke-width="8"/>
<path d="M28.8164 142.439C85.5254 142.492 102.984 157.63 103.394 217.017" stroke="#FFC7AC" stroke-width="8"/>
<path d="M200 142.32C143.291 142.373 125.832 157.511 125.423 216.897" stroke="#FFC7AC" stroke-width="8"/>
</svg>
