<svg width="48" height="48" viewBox="0 0 48 48" fill="none" xmlns="http://www.w3.org/2000/svg">
<rect width="48" height="48" rx="24" fill="#0000FF"/>
<path d="M37.84 12.02C37.44 10.84 36.32 10 35 10H13C11.68 10 10.58 10.84 10.16 12.02L6 24V40C6 41.1 6.9 42 8 42H10C11.1 42 12 41.1 12 40V38H36V40C36 41.1 36.9 42 38 42H40C41.1 42 42 41.1 42 40V24L37.84 12.02ZM15 32C13.34 32 12 30.66 12 29C12 27.34 13.34 26 15 26C16.66 26 18 27.34 18 29C18 30.66 16.66 32 15 32ZM33 32C31.34 32 30 30.66 30 29C30 27.34 31.34 26 33 26C34.66 26 36 27.34 36 29C36 30.66 34.66 32 33 32ZM11.62 20L13.7 14H34.28L36.36 20H11.62Z" fill="white"/>
</svg>
